<?xml version="1.0" encoding="UTF-8" standalone="no"?>
<svg
   version="1.0"
   width="225.000000pt"
   height="225.000000pt"
   viewBox="0 0 225.000000 225.000000"
   preserveAspectRatio="xMidYMid meet"
   id="svg10"
   sodipodi:docname="vector mod original-logo-.svg"
   inkscape:version="1.2.1 (9c6d41e410, 2022-07-14)"
   xmlns:inkscape="http://www.inkscape.org/namespaces/inkscape"
   xmlns:sodipodi="http://sodipodi.sourceforge.net/DTD/sodipodi-0.dtd"
   xmlns="http://www.w3.org/2000/svg"
   xmlns:svg="http://www.w3.org/2000/svg">
  <defs
     id="defs14" />
  <sodipodi:namedview
     id="namedview12"
     pagecolor="#ffffff"
     bordercolor="#000000"
     borderopacity="0.25"
     inkscape:showpageshadow="2"
     inkscape:pageopacity="0.0"
     inkscape:pagecheckerboard="0"
     inkscape:deskcolor="#d1d1d1"
     inkscape:document-units="pt"
     showgrid="false"
     inkscape:zoom="2.27"
     inkscape:cx="150"
     inkscape:cy="150"
     inkscape:window-width="1600"
     inkscape:window-height="876"
     inkscape:window-x="0"
     inkscape:window-y="0"
     inkscape:window-maximized="1"
     inkscape:current-layer="svg10" />
  <g
     transform="translate(0.000000,225.000000) scale(0.100000,-0.100000)"
     fill="#000000"
     stroke="none"
     id="g8"
     style="fill:#ffffff">
    <path
       d="M145 2050 c-4 -14 -8 -70 -8 -125 1 -164 53 -294 166 -412 33 -35 57 -63 53 -63 -16 0 -139 61 -181 90 -25 17 -60 50 -76 73 l-31 42 7 -40 c22 -139 66 -270 120 -355 43 -68 144 -164 202 -191 29 -13 52 -28 53 -33 0 -9 -125 -1 -170 11 -24 6 -24 5 11 -38 74 -90 282 -199 381 -199 15 0 29 -4 33 -9 5 -9 -21 -20 -105 -41 -42 -11 -43 -13 -25 -26 38 -28 145 -54 231 -55 46 -1 84 -4 84 -6 0 -2 -23 -14 -52 -27 l-52 -23 39 -7 c90 -17 246 -94 284 -140 12 -14 18 -12 52 19 48 43 96 68 205 104 l87 29 -38 16 c-20 9 -41 16 -46 16 -5 0 -9 5 -9 10 0 6 33 10 78 10 83 0 155 16 215 46 l38 20 -76 22 c-76 22 -98 42 -47 42 75 0 231 64 312 128 51 40 105 100 98 108 -3 2 -28 0 -56 -6 -27 -6 -70 -10 -94 -8 l-43 3 65 35 c150 81 260 248 305 462 23 109 22 110 -42 48 -53 -51 -150 -107 -213 -125 -23 -6 -23 -4 7 20 41 33 113 126 142 183 49 97 75 279 55 382 l-7 32 -30 -63 c-36 -76 -142 -186 -245 -253 -40 -26 -141 -84 -225 -127 -192 -101 -242 -147 -222 -209 5 -15 10 -17 40 -7 41 12 80 -8 96 -51 17 -42 4 -178 -22 -247 -33 -85 -122 -174 -206 -205 -49 -18 -63 -27 -68 -49 -8 -32 -62 -141 -79 -159 -10 -10 -15 -9 -28 5 -23 25 -78 138 -78 160 0 13 -19 28 -62 48 -83 40 -152 111 -196 203 -30 63 -36 87 -40 166 -4 87 -3 95 18 116 19 19 29 21 71 16 l49 -7 0 35 c0 57 -35 86 -214 175 -242 121 -361 209 -439 329 -24 37 -49 81 -54 97 l-10 30 -8 -25z m341 -396 c162 -80 254 -140 254 -166 0 -5 -14 -27 -31 -48 -28 -34 -33 -49 -37 -112 -10 -161 73 -337 198 -421 l25 -17 -29 10 c-36 13 -125 72 -153 102 -45 48 -93 142 -109 216 -16 72 -15 153 2 250 6 29 1 37 -37 76 -52 51 -142 88 -203 84 -38 -3 -41 -6 -44 -33 -2 -21 7 -44 28 -75 29 -43 28 -42 -24 13 -30 32 -70 88 -89 125 -32 62 -67 168 -67 206 0 9 29 -13 68 -53 62 -61 87 -78 248 -157z m1574 159 c-18 -90 -80 -210 -145 -278 -51 -55 -53 -57 -25 -15 21 31 30 54 28 75 -3 27 -6 30 -44 33 -61 4 -151 -33 -202 -84 l-44 -43 9 -53 c4 -29 7 -93 7 -143 -1 -72 -7 -103 -28 -154 -36 -88 -94 -161 -167 -210 -69 -46 -114 -57 -52 -12 152 110 229 426 127 522 -13 12 -24 28 -24 35 0 28 88 87 254 168 161 79 184 93 244 155 37 37 69 66 70 65 2 -1 -2 -29 -8 -61z m-1828 -397 c47 -25 113 -50 145 -56 56 -11 59 -13 61 -43 5 -81 31 -144 89 -214 19 -24 32 -43 28 -43 -16 0 -104 94 -147 158 -49 72 -99 115 -150 127 -34 9 -46 -14 -30 -57 15 -41 -2 -26 -32 28 -22 39 -60 144 -53 144 2 0 42 -20 89 -44z m1838 -45 c-11 -29 -32 -69 -46 -89 -15 -20 -23 -28 -19 -17 5 11 9 34 9 50 1 27 -2 30 -29 28 -45 -4 -103 -50 -155 -126 -51 -73 -104 -133 -133 -148 -9 -6 1 14 23 43 45 60 78 138 82 197 l3 39 58 12 c32 6 95 30 140 53 94 49 101 44 67 -42z m-1540 -389 l95 4 50 -37 c64 -48 143 -84 235 -108 l72 -18 17 -51 c10 -28 30 -69 44 -91 15 -22 27 -43 27 -47 0 -3 -28 19 -62 49 -135 118 -368 257 -431 257 -38 0 -45 -25 -16 -57 l24 -25 -40 16 c-55 23 -142 76 -167 103 l-21 22 39 -11 c21 -5 81 -8 134 -6z m1311 -22 c-38 -32 -142 -90 -161 -90 -9 0 -7 6 5 20 23 26 13 50 -22 50 -62 0 -283 -130 -423 -250 -78 -66 -84 -67 -45 -9 19 28 41 72 48 97 14 46 15 47 68 58 99 21 186 61 268 123 32 24 40 26 135 23 56 -2 112 1 126 6 38 15 39 3 1 -28z"
       id="path2"
       style="fill:#ffffff" />
    <path
       d="M1200 1191 c-8 -5 -44 -14 -80 -21 -65 -12 -100 -31 -100 -57 0 -7 9 -13 21 -13 12 0 19 -5 17 -12 -5 -15 -48 -24 -48 -10 0 14 -43 20 -68 11 -28 -11 -28 -39 0 -74 21 -28 22 -28 30 -6 6 17 15 22 35 19 23 -2 29 -8 31 -35 2 -22 -3 -38 -18 -53 -21 -21 -21 -22 -3 -35 11 -8 25 -33 32 -57 17 -58 61 -138 76 -138 12 0 69 114 80 163 5 17 16 29 30 33 23 6 23 6 5 37 -10 18 -21 52 -25 77 -4 25 -14 60 -21 79 -13 31 -13 36 4 55 37 41 38 58 2 37z"
       id="path4"
       style="fill:#ffffff" />
    <path
       d="M1234 534 c-21 -14 -56 -42 -76 -62 l-37 -35 -39 37 c-21 21 -54 48 -73 59 l-34 22 28 -33 c15 -19 27 -37 27 -42 0 -4 -17 -11 -37 -15 -72 -13 -105 -39 -117 -90 l-8 -30 31 29 31 30 0 -40 c1 -21 7 -50 14 -62 l13 -24 17 26 c18 29 53 35 62 11 4 -8 -2 -27 -11 -42 -18 -27 -18 -27 16 -56 19 -15 46 -35 60 -42 25 -13 30 -12 65 14 22 15 47 37 57 48 16 18 16 22 2 33 -20 17 -19 49 2 57 10 4 24 -3 39 -20 20 -24 24 -25 36 -10 7 9 13 36 13 60 0 50 6 53 34 17 l21 -27 0 27 c0 38 -38 71 -98 86 -29 6 -52 17 -52 23 0 6 14 26 32 44 38 40 34 42 -18 7z"
       id="path6"
       style="fill:#ffffff" />
  </g>
</svg>
